# xmcd
#
# Track frame offsets:
#	150
#	11799
#	23390
#	33233
#	43609
#	55099
#	66194
#	78441
#	90371
#	101718
#
# Disc length: 1511 seconds
#
# Revision: 0
# Processed by: cddbd v1.5.1PL0 Copyright (c) Steve Scherf et al.
# Submitted via: dBpowerAMP V4.0
#
DISCID=6d05e50a
DTITLE=Patsy Cline - Honky Tonk Angel
DYEAR=2005
DGENRE=Country
TTITLE0=Walkin' After Midnight
TTITLE1=Never No More
TTITLE2=Turn The Cards Slowly
TTITLE3=Lovesick Blues
TTITLE4=Let The Teardrops Fall
TTITLE5=Hungry For Love
TTITLE6=A Poor Man's Roses
TTITLE7=Today, Tomorrow And Forever
TTITLE8=Craazy Dream
TTITLE9=If Only I Could Stay Asleep
EXTD=
EXTT0=
EXTT1=
EXTT2=
EXTT3=
EXTT4=
EXTT5=
EXTT6=
EXTT7=
EXTT8=
EXTT9=
PLAYORDER=
